<svg width="121" height="43" viewBox="0 0 121 43" fill="none" xmlns="http://www.w3.org/2000/svg">
<rect x="90" y="4" width="31" height="35" rx="3" fill="#34D399"/>
<path d="M11.556 34.36C9.324 34.36 7.452 34.036 5.94 33.388C4.452 32.716 3.312 31.852 2.52 30.796C1.752 29.716 1.344 28.588 1.296 27.412C1.296 27.196 1.368 27.016 1.512 26.872C1.656 26.728 1.836 26.656 2.052 26.656H5.256C5.568 26.656 5.796 26.728 5.94 26.872C6.108 26.992 6.252 27.148 6.372 27.34C6.516 27.796 6.792 28.252 7.2 28.708C7.608 29.14 8.16 29.5 8.856 29.788C9.576 30.076 10.476 30.22 11.556 30.22C13.284 30.22 14.568 29.932 15.408 29.356C16.272 28.78 16.704 28 16.704 27.016C16.704 26.32 16.476 25.768 16.02 25.36C15.564 24.928 14.856 24.544 13.896 24.208C12.96 23.848 11.712 23.476 10.152 23.092C8.352 22.66 6.84 22.144 5.616 21.544C4.416 20.92 3.504 20.14 2.88 19.204C2.28 18.268 1.98 17.08 1.98 15.64C1.98 14.248 2.352 13.012 3.096 11.932C3.864 10.852 4.944 10 6.336 9.376C7.752 8.752 9.432 8.44 11.376 8.44C12.936 8.44 14.316 8.656 15.516 9.088C16.716 9.496 17.712 10.048 18.504 10.744C19.296 11.416 19.896 12.148 20.304 12.94C20.736 13.708 20.964 14.464 20.988 15.208C20.988 15.4 20.916 15.58 20.772 15.748C20.652 15.892 20.472 15.964 20.232 15.964H16.884C16.692 15.964 16.5 15.916 16.308 15.82C16.116 15.724 15.96 15.544 15.84 15.28C15.696 14.536 15.228 13.9 14.436 13.372C13.644 12.844 12.624 12.58 11.376 12.58C10.08 12.58 9.036 12.82 8.244 13.3C7.452 13.78 7.056 14.524 7.056 15.532C7.056 16.204 7.248 16.768 7.632 17.224C8.04 17.656 8.676 18.04 9.54 18.376C10.428 18.712 11.592 19.072 13.032 19.456C15.072 19.912 16.74 20.44 18.036 21.04C19.332 21.64 20.28 22.408 20.88 23.344C21.48 24.256 21.78 25.42 21.78 26.836C21.78 28.42 21.348 29.776 20.484 30.904C19.644 32.008 18.456 32.86 16.92 33.46C15.384 34.06 13.596 34.36 11.556 34.36ZM33.5737 34.36C31.8457 34.36 30.3217 34.036 29.0017 33.388C27.7057 32.74 26.6857 31.804 25.9417 30.58C25.2217 29.332 24.8257 27.832 24.7537 26.08C24.7297 25.72 24.7177 25.252 24.7177 24.676C24.7177 24.076 24.7297 23.584 24.7537 23.2C24.8257 21.448 25.2217 19.96 25.9417 18.736C26.6857 17.488 27.7057 16.54 29.0017 15.892C30.3217 15.244 31.8457 14.92 33.5737 14.92C35.1097 14.92 36.4177 15.136 37.4977 15.568C38.5777 15.976 39.4657 16.516 40.1617 17.188C40.8577 17.836 41.3737 18.52 41.7097 19.24C42.0697 19.936 42.2617 20.572 42.2857 21.148C42.3097 21.412 42.2257 21.628 42.0337 21.796C41.8657 21.94 41.6617 22.012 41.4217 22.012H38.2537C38.0137 22.012 37.8217 21.952 37.6777 21.832C37.5577 21.712 37.4377 21.532 37.3177 21.292C36.9577 20.332 36.4777 19.66 35.8777 19.276C35.3017 18.868 34.5577 18.664 33.6457 18.664C32.4457 18.664 31.4857 19.048 30.7657 19.816C30.0697 20.56 29.6977 21.748 29.6497 23.38C29.6017 24.292 29.6017 25.132 29.6497 25.9C29.6977 27.556 30.0697 28.756 30.7657 29.5C31.4857 30.244 32.4457 30.616 33.6457 30.616C34.5817 30.616 35.3377 30.424 35.9137 30.04C36.4897 29.632 36.9577 28.948 37.3177 27.988C37.4377 27.748 37.5577 27.568 37.6777 27.448C37.8217 27.328 38.0137 27.268 38.2537 27.268H41.4217C41.6617 27.268 41.8657 27.352 42.0337 27.52C42.2257 27.664 42.3097 27.868 42.2857 28.132C42.2617 28.564 42.1417 29.056 41.9257 29.608C41.7337 30.136 41.4097 30.688 40.9537 31.264C40.5217 31.816 39.9697 32.332 39.2977 32.812C38.6257 33.268 37.8097 33.64 36.8497 33.928C35.9137 34.216 34.8217 34.36 33.5737 34.36ZM51.4761 34.36C50.2281 34.36 49.1001 34.12 48.0921 33.64C47.0841 33.136 46.2801 32.476 45.6801 31.66C45.1041 30.82 44.8161 29.884 44.8161 28.852C44.8161 27.172 45.5001 25.84 46.8681 24.856C48.2361 23.848 50.0241 23.176 52.2321 22.84L57.1641 22.12V21.364C57.1641 20.356 56.9121 19.576 56.4081 19.024C55.9041 18.472 55.0401 18.196 53.8161 18.196C52.9521 18.196 52.2441 18.376 51.6921 18.736C51.1641 19.072 50.7681 19.528 50.5041 20.104C50.3121 20.416 50.0361 20.572 49.6761 20.572H46.8321C46.5681 20.572 46.3641 20.5 46.2201 20.356C46.1001 20.212 46.0401 20.02 46.0401 19.78C46.0641 19.396 46.2201 18.928 46.5081 18.376C46.8201 17.824 47.2761 17.296 47.8761 16.792C48.5001 16.264 49.3041 15.82 50.2881 15.46C51.2721 15.1 52.4601 14.92 53.8521 14.92C55.3641 14.92 56.6361 15.112 57.6681 15.496C58.7241 15.856 59.5641 16.348 60.1881 16.972C60.8121 17.596 61.2681 18.328 61.5561 19.168C61.8441 20.008 61.9881 20.896 61.9881 21.832V33.136C61.9881 33.376 61.9041 33.58 61.7361 33.748C61.5681 33.916 61.3641 34 61.1241 34H58.2081C57.9441 34 57.7281 33.916 57.5601 33.748C57.4161 33.58 57.3441 33.376 57.3441 33.136V31.732C57.0321 32.164 56.6121 32.584 56.0841 32.992C55.5561 33.4 54.9081 33.736 54.1401 34C53.3961 34.24 52.5081 34.36 51.4761 34.36ZM52.7001 30.94C53.5401 30.94 54.2961 30.76 54.9681 30.4C55.6641 30.04 56.2041 29.488 56.5881 28.744C56.9961 27.976 57.2001 27.016 57.2001 25.864V25.108L53.6001 25.684C52.1841 25.9 51.1281 26.248 50.4321 26.728C49.7361 27.208 49.3881 27.796 49.3881 28.492C49.3881 29.02 49.5441 29.476 49.8561 29.86C50.1921 30.22 50.6121 30.496 51.1161 30.688C51.6201 30.856 52.1481 30.94 52.7001 30.94ZM67.4705 34C67.2305 34 67.0265 33.916 66.8585 33.748C66.6905 33.58 66.6065 33.376 66.6065 33.136V16.144C66.6065 15.904 66.6905 15.7 66.8585 15.532C67.0265 15.364 67.2305 15.28 67.4705 15.28H70.4225C70.6625 15.28 70.8665 15.364 71.0345 15.532C71.2025 15.7 71.2865 15.904 71.2865 16.144V17.62C71.9105 16.852 72.7025 16.216 73.6625 15.712C74.6465 15.184 75.8585 14.92 77.2985 14.92C78.7625 14.92 80.0345 15.256 81.1145 15.928C82.1945 16.576 83.0225 17.5 83.5985 18.7C84.1985 19.9 84.4985 21.34 84.4985 23.02V33.136C84.4985 33.376 84.4145 33.58 84.2465 33.748C84.0785 33.916 83.8745 34 83.6345 34H80.4665C80.2265 34 80.0225 33.916 79.8545 33.748C79.6865 33.58 79.6025 33.376 79.6025 33.136V23.236C79.6025 21.844 79.2545 20.752 78.5585 19.96C77.8865 19.168 76.9025 18.772 75.6065 18.772C74.3585 18.772 73.3625 19.168 72.6185 19.96C71.8745 20.752 71.5025 21.844 71.5025 23.236V33.136C71.5025 33.376 71.4185 33.58 71.2505 33.748C71.0825 33.916 70.8785 34 70.6385 34H67.4705Z" fill="black"/>
<path d="M95.672 34C95.432 34 95.228 33.916 95.06 33.748C94.892 33.58 94.808 33.376 94.808 33.136V9.664C94.808 9.424 94.892 9.22 95.06 9.052C95.228 8.884 95.432 8.8 95.672 8.8H99.056C99.32 8.8 99.524 8.884 99.668 9.052C99.836 9.22 99.92 9.424 99.92 9.664V33.136C99.92 33.376 99.836 33.58 99.668 33.748C99.524 33.916 99.32 34 99.056 34H95.672ZM113.594 34C112.154 34 110.942 33.748 109.958 33.244C108.974 32.74 108.242 31.996 107.762 31.012C107.282 30.004 107.042 28.756 107.042 27.268V19.096H104.198C103.958 19.096 103.754 19.012 103.586 18.844C103.418 18.676 103.334 18.46 103.334 18.196V16.144C103.334 15.904 103.418 15.7 103.586 15.532C103.754 15.364 103.958 15.28 104.198 15.28H107.042V9.304C107.042 9.064 107.114 8.86 107.258 8.692C107.426 8.524 107.642 8.44 107.906 8.44H110.822C111.062 8.44 111.266 8.524 111.434 8.692C111.602 8.86 111.686 9.064 111.686 9.304V15.28H116.186C116.426 15.28 116.63 15.364 116.798 15.532C116.966 15.7 117.05 15.904 117.05 16.144V18.196C117.05 18.46 116.966 18.676 116.798 18.844C116.63 19.012 116.426 19.096 116.186 19.096H111.686V26.908C111.686 27.892 111.854 28.66 112.19 29.212C112.55 29.764 113.162 30.04 114.026 30.04H116.51C116.75 30.04 116.954 30.124 117.122 30.292C117.29 30.46 117.374 30.664 117.374 30.904V33.136C117.374 33.376 117.29 33.58 117.122 33.748C116.954 33.916 116.75 34 116.51 34H113.594Z" fill="white"/>
</svg>
